<svg width="200" height="200" viewBox="0 0 200 200" fill="none" xmlns="http://www.w3.org/2000/svg">
<rect width="200" height="200" fill="black"/>
<path d="M88.7375 72.5571C88.7375 71.3733 87.7779 70.4134 86.594 70.4134H55.8334V110.87C55.8334 111.688 55.1701 112.352 54.3519 112.352H34.1685C33.3503 112.352 32.687 111.688 32.687 110.87V59.0972C32.6871 52.5637 37.9834 47.2671 44.5172 47.2671H86.594C100.561 47.2671 111.884 58.5898 111.884 72.5571C111.884 86.5244 100.561 97.8472 86.594 97.8472H61.6191C60.8009 97.8472 60.1376 97.1839 60.1376 96.3657V76.1822C60.1376 75.364 60.8009 74.7007 61.6191 74.7007H86.594C87.7778 74.7007 88.7375 73.741 88.7375 72.5571Z" fill="white"/>
<path d="M143.915 139.724H55.8334V143.195C55.8334 143.652 56.2035 144.022 56.66 144.022H143.088C143.545 144.022 143.915 143.652 143.915 143.195V139.724ZM167.061 143.195C167.061 156.435 156.328 167.168 143.088 167.168H56.66C43.42 167.168 32.687 156.435 32.687 143.195V128.564C32.687 121.944 38.0536 116.577 44.6736 116.577H155.075C161.695 116.577 167.061 121.944 167.061 128.564V143.195Z" fill="white"/>
<path d="M144.167 58.3832C144.167 57.055 143.09 55.9781 141.762 55.9781C140.434 55.9781 139.357 57.055 139.357 58.3832V86.7722C139.357 88.1004 140.434 89.1771 141.762 89.1771C143.09 89.1771 144.167 88.1004 144.167 86.7722V58.3832ZM167.313 86.7722C167.313 100.884 155.873 112.324 141.762 112.324C127.65 112.324 116.21 100.884 116.21 86.7722V58.3832C116.21 44.2715 127.65 32.8318 141.762 32.8318C155.873 32.8318 167.313 44.2715 167.313 58.3832V86.7722Z" fill="white"/>
</svg>
